<?xml version="1.0" standalone="no"?>
<!DOCTYPE svg PUBLIC "-//W3C//DTD SVG 20010904//EN"
 "http://www.w3.org/TR/2001/REC-SVG-20010904/DTD/svg10.dtd">
<svg version="1.0" xmlns="http://www.w3.org/2000/svg"
 width="1024.000000pt" height="1536.000000pt" viewBox="0 0 1024.000000 1536.000000"
 preserveAspectRatio="xMidYMid meet">

<g transform="translate(0.000000,1536.000000) scale(0.100000,-0.100000)"
fill="#000000" stroke="none">
<path d="M4539 12460 c-129 -21 -233 -72 -322 -162 -57 -56 -62 -59 -150 -78
-71 -15 -127 -37 -242 -96 -182 -92 -267 -127 -392 -159 -110 -29 -219 -32
-303 -10 -30 8 -56 12 -58 10 -2 -2 6 -21 19 -42 21 -34 24 -49 23 -138 -1
-79 -9 -136 -41 -275 -54 -229 -54 -235 -54 -356 0 -100 -1 -104 -22 -104 -44
0 -218 -68 -281 -110 -120 -77 -204 -183 -387 -489 -51 -86 -101 -152 -162
-217 l-88 -93 38 -6 c104 -18 234 -60 315 -102 119 -61 229 -166 405 -385 253
-315 382 -403 704 -479 71 -17 129 -35 129 -40 0 -5 -5 -9 -10 -9 -6 0 -49
-37 -95 -81 -96 -93 -141 -169 -152 -259 l-6 -55 34 28 c144 116 311 162 564
155 113 -3 153 -8 205 -27 36 -12 69 -26 74 -31 4 -4 -22 -50 -59 -102 -81
-113 -128 -202 -155 -300 -23 -81 -37 -235 -26 -294 l8 -38 32 60 c109 203
298 403 470 495 l59 32 -7 -39 c-24 -136 -28 -179 -23 -269 5 -96 31 -205 49
-205 4 0 8 7 8 15 0 42 149 308 193 343 14 12 17 10 22 -15 4 -15 22 -82 40
-148 47 -169 46 -165 35 -263 -9 -80 -73 -293 -125 -419 -14 -34 -16 -35 -33
-20 -45 41 -302 140 -319 123 -3 -3 14 -28 38 -55 104 -120 156 -244 166 -391
5 -74 2 -100 -25 -200 -17 -63 -47 -191 -67 -285 -20 -93 -38 -171 -40 -173
-8 -8 -66 41 -124 105 -97 105 -130 193 -132 347 0 39 -4 80 -9 91 -7 17 -12
12 -33 -36 -52 -115 -66 -220 -43 -327 20 -96 62 -173 148 -268 39 -44 83
-105 99 -136 32 -64 59 -163 59 -221 0 -35 -2 -37 -20 -27 -11 6 -60 59 -108
118 -48 58 -139 165 -203 237 -253 286 -289 339 -289 427 0 29 17 103 40 179
59 193 80 308 80 441 0 132 -16 216 -60 322 -31 75 -139 252 -140 229 0 -22
-21 -168 -26 -186 -4 -12 -16 12 -36 69 -66 197 -159 358 -269 467 -71 69 -90
80 -87 50 1 -10 0 -45 -1 -78 l-2 -60 -32 40 c-68 86 -173 187 -256 246 -74
53 -280 164 -288 155 -2 -2 8 -28 23 -59 14 -31 24 -66 22 -77 -3 -19 -8 -17
-58 21 -159 120 -444 209 -669 209 l-86 0 51 -34 c80 -54 141 -130 194 -240
55 -117 95 -224 87 -232 -3 -3 -29 2 -57 11 -28 9 -53 15 -56 12 -9 -8 126
-360 166 -434 23 -41 39 -78 35 -81 -3 -3 -40 4 -82 17 -41 12 -78 20 -81 17
-8 -8 26 -92 68 -173 71 -134 182 -265 287 -340 35 -25 61 -49 56 -54 -5 -5
-57 -10 -117 -11 l-110 -3 83 -88 c239 -251 484 -369 858 -412 211 -24 276
-47 380 -133 70 -59 367 -392 349 -392 -3 0 -45 9 -93 20 -73 17 -107 33 -198
90 -267 168 -529 252 -735 235 -94 -7 -216 -28 -227 -39 -4 -3 13 -26 37 -51
24 -25 42 -47 39 -49 -2 -3 -25 0 -49 6 -55 12 -175 5 -254 -17 -69 -18 -210
-83 -245 -112 l-24 -20 73 -22 c40 -12 69 -26 64 -31 -5 -4 -41 -21 -81 -38
-151 -63 -269 -172 -405 -377 -71 -107 -206 -363 -223 -423 l-7 -23 41 20 c87
45 144 52 446 61 159 5 290 8 292 7 1 -2 -20 -34 -47 -72 -26 -39 -46 -73 -43
-77 6 -11 152 -10 258 2 115 13 195 33 298 75 45 18 83 30 85 25 2 -4 -19 -46
-47 -91 -28 -46 -48 -85 -46 -87 7 -7 143 28 211 53 106 40 180 84 251 149
l66 61 -7 -73 c-7 -72 -7 -73 13 -63 47 26 142 114 189 178 71 94 103 158 172
340 82 214 107 237 226 196 117 -40 250 -145 307 -243 15 -26 43 -114 67 -210
23 -91 54 -208 71 -261 16 -53 29 -100 29 -104 0 -4 -46 -5 -102 -2 -106 5
-206 28 -315 71 -35 13 -63 22 -63 19 0 -10 44 -69 84 -111 60 -63 117 -103
255 -176 144 -77 232 -143 254 -188 8 -18 31 -73 51 -121 43 -105 143 -306
198 -399 22 -37 37 -72 33 -77 -3 -6 -31 -18 -62 -27 -45 -13 -83 -15 -177
-11 -67 3 -132 8 -146 12 -22 6 -20 2 15 -29 54 -49 189 -117 310 -156 180
-59 218 -85 282 -196 176 -301 288 -613 294 -818 1 -23 4 -54 8 -71 7 -29 7
-29 29 27 12 32 40 126 62 209 48 182 71 236 116 280 30 29 42 34 97 37 36 2
91 -3 131 -12 38 -9 71 -15 73 -12 2 2 -35 39 -83 82 -176 159 -225 209 -303
308 -111 142 -228 318 -269 404 -33 69 -34 78 -29 148 5 64 15 94 76 229 63
138 108 262 97 272 -2 2 -34 -28 -71 -67 -78 -80 -139 -122 -216 -150 l-54
-19 -23 22 c-34 32 -90 155 -107 234 -38 178 1 335 113 456 26 27 106 94 177
147 122 91 214 174 204 184 -2 2 -38 -5 -79 -16 -84 -22 -270 -37 -270 -21 0
17 130 192 191 258 101 108 259 175 410 175 95 0 145 -14 166 -46 16 -25 15
-33 -10 -162 -44 -220 -35 -389 27 -555 26 -70 87 -187 97 -187 3 0 12 26 19
57 17 80 41 156 45 151 3 -2 16 -44 30 -93 51 -174 166 -348 315 -472 l75 -63
7 53 c4 28 10 78 13 110 4 31 9 57 13 56 4 0 30 -32 57 -72 57 -81 146 -160
285 -252 l95 -62 10 82 10 82 145 -91 c180 -112 296 -222 354 -334 21 -41 40
-71 43 -68 16 16 44 244 50 406 7 238 -12 386 -73 545 -11 27 14 16 77 -35 34
-28 64 -48 66 -46 8 8 -27 149 -56 221 -39 96 -100 191 -180 277 -35 38 -58
68 -53 68 8 0 113 -30 160 -45 7 -3 -4 27 -25 67 -46 89 -166 217 -268 287
-71 49 -230 131 -254 131 -28 0 -6 18 45 35 65 22 65 23 -77 70 -241 82 -426
90 -744 35 -174 -29 -196 -31 -265 -21 -41 6 -119 11 -172 11 -54 0 -98 4 -98
9 0 19 93 90 138 107 26 9 119 46 207 80 200 79 242 88 364 80 260 -17 436
-18 527 -2 111 19 248 63 346 111 77 38 228 135 228 147 0 3 -33 12 -74 18
-79 13 -102 22 -93 37 3 5 45 33 94 63 110 67 257 212 336 331 31 47 57 89 57
93 0 3 -46 6 -101 6 l-102 0 85 88 c99 102 176 226 236 377 44 113 56 155 44
155 -5 0 -34 -9 -65 -19 -43 -15 -57 -17 -57 -7 0 32 158 382 204 451 19 28
63 82 100 118 78 80 91 76 -164 47 -291 -33 -484 -90 -630 -184 -39 -25 -75
-46 -81 -46 -11 0 12 48 53 108 17 24 28 45 26 48 -8 7 -110 -32 -198 -76
-134 -67 -257 -156 -362 -261 l-97 -97 -3 124 -3 125 -68 -56 c-128 -105 -239
-268 -321 -468 -24 -59 -45 -110 -48 -112 -2 -3 -13 39 -23 92 l-18 96 -28
-34 c-43 -53 -104 -174 -141 -279 -31 -92 -33 -100 -33 -255 0 -172 7 -216 66
-409 18 -58 28 -108 25 -122 -11 -41 -77 -104 -146 -139 -36 -18 -128 -57
-203 -85 -220 -84 -367 -181 -482 -319 -27 -33 -53 -60 -57 -60 -10 -1 -20
136 -16 232 1 48 0 87 -3 87 -20 0 -90 -204 -119 -345 -14 -70 -32 -124 -61
-180 -23 -44 -83 -162 -134 -263 l-92 -183 -21 98 c-12 54 -27 127 -33 163
-16 104 -23 394 -11 506 28 247 83 308 418 462 205 95 276 136 354 209 134
123 231 336 255 553 l6 55 -48 -90 c-131 -241 -242 -352 -455 -456 -83 -40
-320 -121 -390 -134 l-38 -7 7 33 c11 61 50 163 122 330 l72 164 86 60 c114
79 197 164 257 264 27 45 47 83 45 86 -2 2 -29 -12 -59 -31 -72 -45 -151 -74
-200 -74 -22 0 -40 1 -40 3 0 2 11 37 25 78 73 212 135 456 150 592 7 58 7 58
27 40 37 -33 108 -140 143 -216 29 -62 69 -197 88 -292 3 -17 6 -16 16 10 36
88 46 152 45 300 0 119 -5 165 -21 225 -12 41 -23 82 -25 90 -2 11 8 16 43 18
98 6 317 -134 446 -288 l68 -80 3 49 c6 100 -46 237 -139 365 -28 37 -47 71
-44 75 4 3 75 6 158 5 276 -1 511 -74 649 -202 15 -14 31 -23 34 -19 13 13
-15 139 -46 204 -33 72 -103 174 -144 212 l-26 24 109 37 c249 83 420 234 575
508 81 142 133 214 222 303 138 140 270 217 413 240 l70 12 -112 121 c-181
196 -229 239 -303 278 -95 50 -224 89 -315 95 l-76 6 23 56 c63 153 58 237
-26 496 -35 109 -65 219 -69 260 -9 83 2 198 23 250 24 57 22 62 -41 68 -113
12 -315 74 -449 136 -96 45 -171 95 -274 181 -134 112 -253 153 -445 153 -181
0 -319 -31 -486 -109 l-76 -36 -72 55 c-128 96 -337 195 -499 236 -94 24 -225
33 -303 21z m383 -343 c166 -56 367 -165 471 -256 39 -35 45 -52 24 -69 -10
-9 -25 -2 -63 25 -70 50 -276 148 -362 172 -98 27 -262 45 -336 37 -66 -7
-166 -49 -206 -87 -47 -44 -83 -99 -106 -162 -12 -34 -26 -61 -31 -60 -4 1
-28 10 -52 18 -95 34 -205 -25 -263 -142 -32 -66 -33 -72 -33 -188 1 -107 4
-129 31 -205 71 -202 191 -348 359 -439 156 -85 212 -119 290 -181 119 -96
209 -230 240 -362 17 -73 20 -230 4 -188 -40 100 -110 219 -162 276 -133 145
-285 223 -552 283 -158 36 -204 55 -269 112 -51 45 -111 155 -121 222 -8 51 8
125 40 189 l24 48 -24 82 c-40 138 -58 246 -52 309 17 193 191 334 410 332 65
0 77 2 77 16 0 33 58 137 94 168 81 72 167 94 341 89 106 -3 132 -7 227 -39z
m1179 -83 c107 -32 184 -95 233 -192 30 -59 51 -169 42 -222 -5 -35 -4 -38 21
-45 81 -20 159 -111 188 -220 42 -154 -18 -374 -145 -535 -28 -35 -30 -42 -24
-97 20 -185 -126 -329 -401 -397 -55 -13 -152 -36 -215 -51 -224 -53 -369
-126 -501 -253 -102 -96 -137 -146 -215 -296 -35 -66 -64 -114 -64 -105 0 41
34 190 57 249 72 180 209 335 420 476 44 30 164 98 265 150 198 104 277 154
381 239 183 151 307 388 277 530 -13 64 -72 137 -125 157 -33 11 -35 15 -35
59 0 180 -100 342 -248 400 -51 21 -74 23 -228 24 -162 0 -172 1 -187 21 -15
21 -14 22 36 50 128 70 339 96 468 58z m-939 -265 c80 -17 207 -80 264 -132
50 -45 114 -148 114 -182 0 -13 -10 -8 -42 22 -128 117 -297 193 -429 193
-100 0 -181 -41 -240 -123 -16 -22 -46 -48 -67 -57 -84 -38 -150 -150 -138
-234 13 -88 60 -158 168 -258 159 -146 276 -263 243 -243 -64 40 -124 75 -233
136 -130 73 -213 143 -260 222 -113 188 -62 402 109 462 23 8 52 15 65 15 17
0 29 10 43 39 27 53 105 118 160 135 56 18 171 20 243 5z m1716 -195 c-20 -42
-23 -65 -22 -159 1 -106 3 -116 54 -265 48 -140 54 -165 58 -261 8 -193 -49
-343 -182 -474 -74 -73 -166 -129 -273 -166 -82 -28 -91 -24 -36 19 75 60 183
183 231 262 111 185 136 376 87 660 -37 215 -37 272 -3 331 26 44 95 115 104
106 2 -2 -6 -26 -18 -53z m-1123 26 c113 -39 198 -108 232 -189 35 -82 11
-189 -61 -268 -29 -32 -36 -49 -36 -80 0 -73 -29 -133 -94 -198 -80 -79 -128
-103 -355 -180 -104 -35 -222 -80 -262 -100 -81 -41 -169 -119 -194 -171 -22
-48 -27 -39 -11 18 45 146 146 239 406 368 203 101 320 191 359 275 12 25 31
66 44 93 18 38 22 64 22 142 0 86 -3 101 -32 163 -18 38 -47 87 -64 108 -35
45 -33 46 46 19z m-2240 -370 c-19 -131 -19 -237 -1 -333 17 -89 44 -144 136
-280 69 -102 112 -197 123 -272 l6 -40 -22 30 c-24 34 -78 94 -184 207 -117
124 -150 215 -160 433 -6 142 7 222 80 485 l32 115 3 -120 c2 -71 -3 -162 -13
-225z m1708 204 c28 -9 60 -31 82 -55 29 -32 35 -47 35 -83 0 -54 -27 -92 -77
-105 -47 -13 -60 -4 -28 21 49 38 23 108 -56 148 -80 41 -175 15 -206 -57 -19
-46 -13 -111 13 -146 28 -38 100 -74 177 -88 79 -15 179 -2 255 31 l45 20 -19
-21 c-25 -27 -91 -66 -155 -90 -60 -23 -175 -27 -237 -8 -93 27 -152 109 -159
219 -4 57 -1 72 24 120 23 44 39 60 82 82 63 33 149 38 224 12z m-2093 -720
c15 -39 14 -41 -39 -59 -103 -34 -174 -101 -235 -223 -19 -38 -23 -53 -14 -56
94 -26 136 -42 180 -72 95 -62 138 -119 283 -368 38 -65 85 -128 138 -183 145
-151 273 -219 587 -313 230 -69 385 -138 492 -219 80 -61 93 -78 41 -55 -170
74 -364 128 -624 173 -221 39 -330 69 -444 126 -187 91 -266 180 -395 441
-101 204 -153 270 -252 318 -65 32 -158 50 -215 42 -24 -3 -43 -3 -43 -1 0 4
50 74 212 293 72 98 202 180 286 181 26 1 34 -4 42 -25z m975 -505 c86 -170
188 -277 365 -380 61 -35 150 -86 198 -114 120 -70 212 -161 256 -256 19 -41
37 -92 41 -113 l6 -39 -80 74 c-101 94 -193 147 -362 208 -209 75 -312 134
-405 232 -108 115 -150 240 -141 418 2 59 10 131 17 161 l13 54 28 -86 c15
-47 44 -119 64 -159z m3401 170 c24 -6 44 -14 44 -18 0 -3 -37 -16 -82 -29
-181 -50 -266 -139 -378 -397 -66 -150 -141 -266 -221 -339 -237 -220 -585
-356 -946 -371 l-128 -5 91 24 c427 116 797 403 821 640 4 38 1 61 -12 85
l-17 33 34 -7 c62 -14 106 -47 151 -114 l17 -25 11 32 c6 18 29 69 51 114 138
286 354 430 564 377z m-1216 -360 c-41 -161 -130 -319 -236 -420 -116 -109
-239 -175 -459 -244 -83 -26 -177 -60 -210 -75 -67 -30 -210 -120 -297 -187
-32 -24 -58 -41 -58 -37 0 4 29 51 65 104 101 153 179 215 393 317 292 138
340 163 432 224 118 78 256 216 330 330 30 47 56 82 58 78 2 -4 -7 -44 -18
-90z m-3475 -1641 c61 -62 148 -164 195 -225 47 -62 89 -112 93 -112 4 -1 5
34 2 77 -9 106 -24 260 -30 291 -9 45 53 -93 69 -155 8 -33 23 -118 32 -189
10 -84 24 -148 38 -180 13 -27 76 -133 141 -234 107 -166 119 -182 127 -160
15 40 30 307 25 434 l-5 120 21 -75 c18 -67 21 -104 22 -345 l1 -270 27 -52
c15 -29 58 -105 97 -169 38 -65 70 -119 70 -122 0 -2 -36 29 -81 69 -145 132
-149 135 -356 194 -167 48 -325 104 -298 104 6 1 82 -13 170 -29 183 -34 295
-47 295 -34 0 5 -26 54 -58 109 -160 274 -207 323 -415 423 -78 38 -184 89
-235 112 -50 24 -91 45 -89 46 4 4 155 -39 320 -91 65 -20 121 -35 123 -32 12
12 -220 341 -400 566 -89 110 -45 79 99 -71z m4904 35 c-225 -191 -739 -722
-739 -765 0 -14 18 -9 173 48 255 94 428 154 440 154 22 0 -167 -98 -390 -202
-293 -136 -348 -171 -435 -273 -111 -131 -158 -199 -148 -209 12 -12 108 1
386 54 115 22 220 42 234 45 14 2 1 -7 -29 -21 -79 -37 -299 -99 -472 -134
-166 -33 -163 -32 -272 -106 -43 -30 -80 -54 -82 -54 -2 0 14 26 35 59 22 32
55 88 74 123 l36 64 0 260 c-1 142 3 277 9 299 l9 40 1 -45 c3 -117 47 -450
59 -450 14 1 311 407 329 449 8 18 23 87 34 153 10 66 33 153 49 196 32 80 66
145 56 107 -16 -60 -36 -219 -36 -280 l0 -70 118 116 c220 218 372 343 568
466 40 25 36 12 -7 -24z m-4414 -1898 c31 -13 113 -58 184 -100 l128 -75 125
0 c69 0 140 -3 158 -6 27 -6 16 -11 -82 -36 -62 -16 -124 -37 -138 -47 -13
-10 -54 -67 -90 -127 -69 -116 -153 -240 -195 -289 -33 -38 -36 -44 71 175
122 249 118 224 37 216 -96 -9 -221 -40 -252 -63 -14 -11 -57 -58 -95 -104
-106 -130 -238 -280 -243 -275 -2 2 34 64 80 138 97 154 132 218 117 218 -22
0 -239 -50 -345 -79 -60 -17 -202 -60 -314 -95 -113 -36 -206 -64 -208 -62 -6
5 309 152 429 200 64 26 172 61 239 78 l123 32 -35 14 c-19 8 -82 24 -141 36
-59 12 -111 25 -114 29 -14 14 235 7 327 -9 93 -16 95 -16 277 12 100 15 182
32 182 36 0 8 -163 123 -247 174 -67 40 -57 44 22 9z m2935 -201 c25 -3 88
-19 140 -34 52 -16 147 -36 210 -45 150 -21 299 -57 400 -96 45 -17 80 -32 78
-34 -2 -1 -55 8 -118 21 -109 22 -351 55 -358 49 -2 -2 24 -25 59 -52 34 -26
112 -88 172 -138 172 -142 186 -150 292 -190 129 -48 294 -130 283 -140 -2 -2
-53 12 -115 30 -61 19 -134 37 -163 41 l-52 7 64 -84 c35 -46 87 -123 116
-170 54 -90 185 -356 197 -399 4 -14 -36 43 -88 125 -52 83 -115 180 -140 216
-56 80 -194 239 -207 239 -6 0 -10 -50 -11 -117 -1 -65 -4 -145 -8 -178 l-7
-60 -11 80 c-7 44 -17 127 -23 185 -12 114 -23 167 -47 217 -24 51 -249 238
-349 291 l-21 11 3 -262 4 -262 -20 80 c-10 44 -28 157 -40 250 -25 198 -35
251 -56 284 -14 20 -78 54 -264 140 -28 12 -38 13 80 -5z"/>
</g>
</svg>
